PathFileType	4	(X/Y/Z)	./resultDataOpenSim/trcMotMarkerGrf/sub09/qtm-14-03.trc
DataRate	CameraRate	NumFrames	NumMarkers	Units	OrigDataRate	OrigDataStartFrame	OrigNumFrames
250.000000	250.000000	7	24	m	250.000000	426	486
Frame#	Time	L.Toe.Tip			R.Toe.Tip			L.Ankle.Lat			R.Ankle.Lat			L.Ankle.Med			R.Ankle.Med			L.Heel			R.Heel			L.Knee.Lat			R.Knee.Lat			L.Knee.Med			R.Knee.Med			L.Thigh.Upper			R.Thigh.Upper			L.ASIS			R.ASIS			V.Sacral			L.Acromium			R.Acromium			C7			L.Elbow			R.Elbow			L.Wrist.Lat			R.Wrist.Lat
		X1	Y1	Z1	X2	Y2	Z2	X3	Y3	Z3	X4	Y4	Z4	X5	Y5	Z5	X6	Y6	Z6	X7	Y7	Z7	X8	Y8	Z8	X9	Y9	Z9	X10	Y10	Z10	X11	Y11	Z11	X12	Y12	Z12	X13	Y13	Z13	X14	Y14	Z14	X15	Y15	Z15	X16	Y16	Z16	X17	Y17	Z17	X18	Y18	Z18	X19	Y19	Z19	X20	Y20	Z20	X21	Y21	Z21	X22	Y22	Z22	X23	Y23	Z23	X24	Y24	Z24

426	1.7	1.8169271	0.12997667	-0.066314825	1.117333	0.040681292	0.061732953	1.664319	0.094597249	-0.087034295	0.98238261	0.090818433	0.10364954	1.6890791	0.12506243	0.0043946983	1.0036501	0.12968302	0.015315216	1.6231719	0.031197181	-0.030612859	0.90920398	0.093468581	0.054345445	1.5140678	0.48591089	-0.11854905	1.2268397	0.48723728	0.17006418	1.5209723	0.47850808	0.0085200127	1.2085867	0.48179102	0.044689754	1.3435422	0.86339699	-0.14733464	1.2975593	0.88495509	0.21960738	1.4074641	0.95718441	-0.082950593	1.3990694	0.96579713	0.15862185	1.2329008	1.0082026	0.020140028	1.365388	1.4118995	-0.13999421	1.3553191	1.4306577	0.19083187	1.2923777	1.467956	0.024491515	1.1961404	1.0881181	-0.19270052	1.2257312	1.0795246	0.28510453	1.2705382	0.84786866	-0.26665683	1.4542167	0.91519868	0.26838718
427	1.704	1.8197409	0.1253164	-0.066195664	1.1174663	0.040753841	0.061760681	1.6665337	0.092022441	-0.086331434	0.98350232	0.092029069	0.1041875	1.6920228	0.12251398	0.0049776278	1.004713	0.13069949	0.015716551	1.6247597	0.029392955	-0.029583732	0.90998883	0.09538915	0.054857324	1.5208803	0.4852825	-0.11864538	1.2315903	0.48609782	0.16991185	1.5289789	0.47856954	0.0083702584	1.2136351	0.48045523	0.044757794	1.3493614	0.86245736	-0.14819481	1.3027091	0.8836618	0.21898141	1.413487	0.95582726	-0.083574843	1.4049559	0.96434613	0.15809023	1.2388371	1.0069437	0.019368596	1.3703495	1.4107882	-0.14039497	1.3600609	1.4292021	0.19051611	1.2972696	1.4665614	0.024048096	1.2015879	1.0867932	-0.19340105	1.2305465	1.0779342	0.28427209	1.2762942	0.84667117	-0.26743493	1.4590714	0.91362813	0.26818583
428	1.708	1.8221259	0.12051045	-0.065724667	1.1176131	0.040826934	0.061767532	1.6684292	0.089341248	-0.085630378	0.98525367	0.093383542	0.10497564	1.6944006	0.11975043	0.0055992933	1.0058691	0.13177655	0.016139976	1.6258771	0.0274582	-0.028768761	0.91085566	0.097436199	0.055385941	1.527863	0.48461874	-0.11882717	1.2364799	0.48493546	0.169786	1.5369545	0.47863476	0.0081662977	1.2186242	0.47904731	0.04467409	1.3549637	0.86162361	-0.14911784	1.3078867	0.88231927	0.21839128	1.4195684	0.9545619	-0.084213292	1.4108687	0.96290076	0.15754906	1.2448136	1.0057005	0.018625897	1.3753076	1.4096909	-0.14081778	1.3648327	1.4277451	0.19018173	1.3021338	1.4652208	0.023632047	1.2070964	1.0854566	-0.194084	1.2353242	1.0763517	0.28342396	1.2821333	0.84546926	-0.2681957	1.463883	0.91201445	0.2680035
429	1.712	1.8241167	0.11560093	-0.064888892	1.1177815	0.040904045	0.061778425	1.6700445	0.086578711	-0.084912035	0.98781457	0.094922686	0.10603572	1.6962427	0.11679885	0.0062904386	1.0071434	0.13291593	0.016573686	1.6265616	0.025423474	-0.028159496	0.91181515	0.099612195	0.055912039	1.5349727	0.48387879	-0.11904728	1.2415141	0.4837976	0.16972321	1.5448318	0.47868892	0.0078908306	1.2237081	0.47761029	0.044570191	1.360388	0.86086239	-0.15008529	1.3130752	0.88094895	0.21784406	1.4256999	0.95339509	-0.084867235	1.416816	0.96145683	0.15700101	1.2508246	1.004466	0.017912739	1.380267	1.4086092	-0.14126262	1.3696417	1.4262882	0.18983032	1.3069799	1.4639027	0.023232848	1.212669	1.0841133	-0.19474588	1.2400816	1.0747804	0.28255842	1.288051	0.84426612	-0.26893779	1.4686566	0.91035952	0.26784176
430	1.716	1.825777	0.11052637	-0.063717381	1.1179709	0.040993059	0.061827881	1.6714186	0.083778967	-0.084138839	0.99090601	0.096635567	0.10722259	1.6976111	0.11372892	0.0071028891	1.0085437	0.13413167	0.01701981	1.6268595	0.023397095	-0.027708366	0.91288171	0.10192249	0.056423429	1.5420068	0.48303186	-0.11922873	1.2467025	0.4826708	0.16974278	1.5525826	0.4787123	0.0075289715	1.2291763	0.47618604	0.044650696	1.3656898	0.8601368	-0.15107847	1.3183014	0.87955952	0.2173303	1.4318733	0.9523149	-0.085534821	1.4228179	0.96001638	0.15644493	1.2568632	1.0032309	0.017236356	1.3852277	1.407545	-0.14172336	1.3744905	1.4248349	0.18946137	1.3118214	1.4625739	0.022824861	1.2183025	1.0827684	-0.19540424	1.2448871	1.073224	0.28164335	1.2940494	0.84306187	-0.2696625	1.4733868	0.90866699	0.26770619
431	1.72	1.8272592	0.10516537	-0.062260582	1.1181735	0.041100162	0.061920351	1.67265	0.081045426	-0.083260567	0.99395149	0.098449229	0.10832752	1.6986782	0.11071538	0.0080853739	1.010068	0.13543514	0.01748356	1.626905	0.021595477	-0.02730344	0.91406677	0.10437094	0.056912086	1.5487133	0.4820781	-0.11932155	1.2520158	0.48149856	0.16984684	1.5601868	0.4786735	0.0070660576	1.2350876	0.47480464	0.044956536	1.3709428	0.85941085	-0.15208987	1.3235733	0.87816478	0.21682591	1.4380766	0.95129321	-0.086214328	1.4288807	0.95858637	0.15587654	1.262925	1.0019943	0.016610104	1.3901875	1.4065005	-0.14219693	1.3793697	1.4233919	0.18906876	1.3166622	1.461225	0.022390289	1.2239702	1.0814145	-0.19610589	1.2498684	1.0716815	0.28059579	1.3001317	0.84185971	-0.27036638	1.4780669	0.90694226	0.26759981
432	1.724	1.8288722	0.099488634	-0.060538604	1.118388	0.041227737	0.062036055	1.6739595	0.078587515	-0.08225249	0.99676936	0.10032762	0.1093075	1.6998033	0.1080313	0.0092261471	1.0117213	0.13681991	0.017968564	1.6269545	0.020335868	-0.026808462	0.9153729	0.10695352	0.05737665	1.5550392	0.48106177	-0.1193668	1.2574105	0.48023636	0.17002751	1.5676205	0.47853667	0.00649896	1.2411775	0.47347698	0.045330348	1.3762279	0.85865561	-0.15312352	1.3288767	0.87678491	0.21630108	1.4442794	0.95031117	-0.086887799	1.4349964	0.95716628	0.15529555	1.2689994	1.0007717	0.016044916	1.3951484	1.405478	-0.14268457	1.3842625	1.4219654	0.18864738	1.3214984	1.4598677	0.021925397	1.2296053	1.0800284	-0.19693871	1.2551304	1.0701505	0.27934076	1.3062961	0.84066421	-0.27104287	1.4826992	0.90518816	0.26751971
